<svg xmlns="http://www.w3.org/2000/svg" version="1.1" xmlns:xlink="http://www.w3.org/1999/xlink" xmlns:svgjs="http://svgjs.dev/svgjs" width="1500" height="636" viewBox="0 0 1500 636"><g transform="matrix(1,0,0,1,-0.9090909090909918,0.1756703839980105)"><svg viewBox="0 0 396 168" data-background-color="#ffffff" preserveAspectRatio="xMidYMid meet" height="636" width="1500" xmlns="http://www.w3.org/2000/svg" xmlns:xlink="http://www.w3.org/1999/xlink"><g id="tight-bounds" transform="matrix(1,0,0,1,0.2400000000000091,-0.04640349765985263)"><svg viewBox="0 0 395.52 168.0928069953197" height="168.0928069953197" width="395.52"><g><svg viewBox="0 0 397.4975999999999 168.93327103029628" height="168.0928069953197" width="395.52"><g><rect width="397.4975999999999" height="5.174202970612811" x="0" y="92.83829936518462" fill="#085f63" opacity="1" stroke-width="0" stroke="transparent" fill-opacity="1" class="rect-yte-0" data-fill-palette-color="primary" rx="1%" id="yte-0" data-palette-color="#085f63"></rect></g><g transform="matrix(1,0,0,1,0.9887999999999693,111.55753629028123)"><svg viewBox="0 0 395.52 57.37573474001506" height="57.37573474001506" width="395.52"><g id="textblocktransform"><svg viewBox="0 0 395.52 57.37573474001506" height="57.37573474001506" width="395.52" id="textblock"><g><svg viewBox="0 0 395.52 57.37573474001506" height="57.37573474001506" width="395.52"><g transform="matrix(1,0,0,1,0,0)"><svg width="395.52" viewBox="0.5 -38 265.38 38.5" height="57.37573474001506" data-palette-color="#085f63"><g class="wordmark-text-0" data-fill-palette-color="primary" id="text-0"><path d="M16.15-31.75L16.15 0 11.65 0 11.65-31.75 0.5-31.75 0.5-35.7 27.25-35.7 27.25-31.75 16.15-31.75ZM42.4-27.3L42.4-27.3Q45.85-27.3 48.32-25.8 50.8-24.3 52.12-21.58 53.45-18.85 53.45-15.2L53.45-15.2 53.45-12.55 35.1-12.55Q35.2-8 37.42-5.63 39.65-3.25 43.65-3.25L43.65-3.25Q46.2-3.25 48.17-3.73 50.15-4.2 52.25-5.1L52.25-5.1 52.25-1.25Q50.2-0.35 48.2 0.08 46.2 0.5 43.45 0.5L43.45 0.5Q39.65 0.5 36.72-1.05 33.8-2.6 32.17-5.68 30.55-8.75 30.55-13.2L30.55-13.2Q30.55-17.6 32.02-20.75 33.5-23.9 36.17-25.6 38.85-27.3 42.4-27.3ZM42.35-23.7L42.35-23.7Q39.2-23.7 37.37-21.68 35.55-19.65 35.2-16.05L35.2-16.05 48.85-16.05Q48.8-19.45 47.25-21.58 45.7-23.7 42.35-23.7ZM71 0.5L71 0.5Q67.45 0.5 64.67-0.95 61.9-2.4 60.32-5.45 58.75-8.5 58.75-13.25L58.75-13.25Q58.75-18.2 60.4-21.3 62.05-24.4 64.87-25.85 67.7-27.3 71.3-27.3L71.3-27.3Q73.34-27.3 75.25-26.88 77.15-26.45 78.34-25.85L78.34-25.85 77-22.2Q75.8-22.65 74.2-23.05 72.59-23.45 71.2-23.45L71.2-23.45Q63.3-23.45 63.3-13.3L63.3-13.3Q63.3-8.45 65.22-5.88 67.15-3.3 70.95-3.3L70.95-3.3Q73.15-3.3 74.82-3.75 76.5-4.2 77.9-4.85L77.9-4.85 77.9-0.95Q76.55-0.25 74.92 0.13 73.3 0.5 71 0.5ZM88.64-38L88.64-26.85Q88.64-24.85 88.39-23.1L88.39-23.1 88.69-23.1Q89.99-25.15 92.22-26.2 94.44-27.25 97.04-27.25L97.04-27.25Q101.94-27.25 104.39-24.93 106.84-22.6 106.84-17.45L106.84-17.45 106.84 0 102.49 0 102.49-17.15Q102.49-23.6 96.49-23.6L96.49-23.6Q91.99-23.6 90.32-21.08 88.64-18.55 88.64-13.85L88.64-13.85 88.64 0 84.24 0 84.24-38 88.64-38ZM115.74-35.7L125.94-35.7Q132.64-35.7 136.07-33.73 139.49-31.75 139.49-26.85L139.49-26.85Q139.49-23.7 137.74-21.63 135.99-19.55 132.69-18.95L132.69-18.95 132.69-18.7Q134.94-18.35 136.77-17.4 138.59-16.45 139.64-14.7 140.69-12.95 140.69-10.15L140.69-10.15Q140.69-5.3 137.37-2.65 134.04 0 128.29 0L128.29 0 115.74 0 115.74-35.7ZM120.24-20.5L126.84-20.5Q131.44-20.5 133.14-21.98 134.84-23.45 134.84-26.35L134.84-26.35Q134.84-29.3 132.77-30.58 130.69-31.85 126.14-31.85L126.14-31.85 120.24-31.85 120.24-20.5ZM127.09-16.75L120.24-16.75 120.24-3.8 127.44-3.8Q132.19-3.8 134.04-5.65 135.89-7.5 135.89-10.5L135.89-10.5Q135.89-13.3 133.97-15.03 132.04-16.75 127.09-16.75L127.09-16.75ZM149.89-36.85L149.89-36.85Q150.89-36.85 151.66-36.18 152.44-35.5 152.44-34.05L152.44-34.05Q152.44-32.65 151.66-31.95 150.89-31.25 149.89-31.25L149.89-31.25Q148.79-31.25 148.04-31.95 147.29-32.65 147.29-34.05L147.29-34.05Q147.29-35.5 148.04-36.18 148.79-36.85 149.89-36.85ZM147.64-26.8L152.04-26.8 152.04 0 147.64 0 147.64-26.8ZM170.04 0.5L170.04 0.5Q165.04 0.5 162.04-2.98 159.04-6.45 159.04-13.35L159.04-13.35Q159.04-20.25 162.06-23.78 165.09-27.3 170.09-27.3L170.09-27.3Q173.19-27.3 175.16-26.15 177.14-25 178.39-23.35L178.39-23.35 178.69-23.35Q178.64-24 178.51-25.28 178.39-26.55 178.39-27.3L178.39-27.3 178.39-38 182.79-38 182.79 0 179.24 0 178.59-3.6 178.39-3.6Q177.19-1.9 175.19-0.7 173.19 0.5 170.04 0.5ZM170.74-3.15L170.74-3.15Q174.99-3.15 176.71-5.48 178.44-7.8 178.44-12.5L178.44-12.5 178.44-13.3Q178.44-18.3 176.79-20.98 175.14-23.65 170.69-23.65L170.69-23.65Q167.14-23.65 165.36-20.83 163.59-18 163.59-13.25L163.59-13.25Q163.59-8.45 165.36-5.8 167.14-3.15 170.74-3.15ZM200.78 0.5L200.78 0.5Q195.78 0.5 192.78-2.98 189.78-6.45 189.78-13.35L189.78-13.35Q189.78-20.25 192.81-23.78 195.83-27.3 200.83-27.3L200.83-27.3Q203.93-27.3 205.91-26.15 207.88-25 209.13-23.35L209.13-23.35 209.43-23.35Q209.38-24 209.26-25.28 209.13-26.55 209.13-27.3L209.13-27.3 209.13-38 213.53-38 213.53 0 209.98 0 209.33-3.6 209.13-3.6Q207.93-1.9 205.93-0.7 203.93 0.5 200.78 0.5ZM201.48-3.15L201.48-3.15Q205.73-3.15 207.46-5.48 209.18-7.8 209.18-12.5L209.18-12.5 209.18-13.3Q209.18-18.3 207.53-20.98 205.88-23.65 201.43-23.65L201.43-23.65Q197.88-23.65 196.11-20.83 194.33-18 194.33-13.25L194.33-13.25Q194.33-8.45 196.11-5.8 197.88-3.15 201.48-3.15ZM232.38-27.3L232.38-27.3Q235.83-27.3 238.31-25.8 240.78-24.3 242.11-21.58 243.43-18.85 243.43-15.2L243.43-15.2 243.43-12.55 225.08-12.55Q225.18-8 227.41-5.63 229.63-3.25 233.63-3.25L233.63-3.25Q236.18-3.25 238.16-3.73 240.13-4.2 242.23-5.1L242.23-5.1 242.23-1.25Q240.18-0.35 238.18 0.08 236.18 0.5 233.43 0.5L233.43 0.5Q229.63 0.5 226.71-1.05 223.78-2.6 222.16-5.68 220.53-8.75 220.53-13.2L220.53-13.2Q220.53-17.6 222.01-20.75 223.48-23.9 226.16-25.6 228.83-27.3 232.38-27.3ZM232.33-23.7L232.33-23.7Q229.18-23.7 227.36-21.68 225.53-19.65 225.18-16.05L225.18-16.05 238.83-16.05Q238.78-19.45 237.23-21.58 235.68-23.7 232.33-23.7ZM262.73-27.3L262.73-27.3Q263.48-27.3 264.35-27.23 265.23-27.15 265.88-27L265.88-27 265.33-22.95Q264.68-23.1 263.9-23.2 263.13-23.3 262.43-23.3L262.43-23.3Q260.38-23.3 258.58-22.18 256.78-21.05 255.7-19.03 254.63-17 254.63-14.3L254.63-14.3 254.63 0 250.23 0 250.23-26.8 253.83-26.8 254.33-21.9 254.53-21.9Q255.83-24.1 257.88-25.7 259.93-27.3 262.73-27.3Z" fill="#085f63" data-fill-palette-color="primary"></path></g></svg></g></svg></g></svg></g></svg></g><g transform="matrix(1,0,0,1,159.10216729464955,0)"><svg viewBox="0 0 79.29326541070083 79.29326541070083" height="79.29326541070083" width="79.29326541070083"><g><svg xmlns="http://www.w3.org/2000/svg" xml:space="preserve" viewBox="14.966000000000001 14.966 70.06800000000001 70.06800000000001" x="0" y="0" height="79.29326541070083" width="79.29326541070083" class="icon-icon-0" data-fill-palette-color="accent" id="icon-0"><path d="M57.031 40.125H41.852V24.946h15.179z m-13.179-2h11.179V26.946H43.852zM55.585 54H23.96v-8h31.625zM25.96 52h27.625v-4H25.96zM55.585 64.5H23.96v-8h31.625z m-29.625-2h27.625v-4H25.96zM68.094 57.284c-4.687 0-8.5-3.813-8.5-8.5s3.813-8.5 8.5-8.5c4.688 0 8.5 3.813 8.5 8.5s-3.813 8.5-8.5 8.5m0-15c-3.584 0-6.5 2.916-6.5 6.5s2.916 6.5 6.5 6.5 6.5-2.916 6.5-6.5-2.916-6.5-6.5-6.5M67.648 35.785a3.254 3.254 0 0 1-3.25-3.25c0-1.792 1.458-3.25 3.25-3.25s3.25 1.458 3.25 3.25a3.253 3.253 0 0 1-3.25 3.25m0-4.5c-0.689 0-1.25 0.561-1.25 1.25s0.561 1.25 1.25 1.25 1.25-0.561 1.25-1.25-0.56-1.25-1.25-1.25" fill="#49beb7" data-fill-palette-color="accent"></path><path d="M56.031 31.535h9.367v2h-9.367zM49 39.125h2V47h-2zM28.351 53h2v4.5h-2zM67.094 56.284h2v22.412h-2zM52.121 79.5h-4.5a3.63 3.63 0 0 1-3.625-3.625v-4.447a3.63 3.63 0 0 1 3.625-3.625h4.5a3.63 3.63 0 0 1 3.625 3.625v4.447a3.63 3.63 0 0 1-3.625 3.625m-4.5-9.697c-0.896 0-1.625 0.729-1.625 1.625v4.447c0 0.896 0.729 1.625 1.625 1.625h4.5c0.896 0 1.625-0.729 1.625-1.625v-4.447c0-0.896-0.729-1.625-1.625-1.625z" fill="#49beb7" data-fill-palette-color="accent"></path><path d="M44.996 74.651h-6.224V63.5h2v9.151h4.224zM35.513 43.5h-7.089V28.321h7.089z m-5.089-2h3.089V30.321h-3.089z" fill="#49beb7" data-fill-palette-color="accent"></path><path d="M19.328 34.91h10.096v2H19.328z" fill="#49beb7" data-fill-palette-color="accent"></path><path d="M50 85.034c-19.318 0-35.034-15.716-35.034-35.034S30.682 14.966 50 14.966 85.034 30.682 85.034 50 69.318 85.034 50 85.034m0-68.068c-18.215 0-33.034 14.819-33.034 33.034S31.785 83.034 50 83.034 83.034 68.215 83.034 50 68.215 16.966 50 16.966" fill="#49beb7" data-fill-palette-color="accent"></path></svg></g></svg></g><g></g></svg></g><defs></defs></svg><rect width="395.52" height="168.0928069953197" fill="none" stroke="none" visibility="hidden"></rect></g></svg></g></svg>